<svg width="66" height="66" viewBox="0 0 66 66" fill="none" xmlns="http://www.w3.org/2000/svg">
<rect width="66" height="66" rx="15" fill="url(#paint0_linear_68_7)"/>
<path d="M45.541 8.23438C45.4629 8.82031 45.4238 9.43229 45.4238 10.0703C45.4238 10.9362 45.4857 11.8249 45.6094 12.7363C45.7331 13.6478 45.9219 14.5299 46.1758 15.3828C46.4297 16.2357 46.7487 17.0332 47.1328 17.7754C47.5234 18.5176 47.9824 19.1458 48.5098 19.6602C49.0501 19.0677 49.5124 18.3971 49.8965 17.6484C50.2871 16.8997 50.6061 16.1152 50.8535 15.2949C51.1009 14.4746 51.2832 13.6348 51.4004 12.7754C51.5176 11.9095 51.5762 11.0599 51.5762 10.2266C51.5762 9.875 51.5664 9.5332 51.5469 9.20117C51.5339 8.86914 51.5111 8.54036 51.4785 8.21484C52.0449 8.24089 52.5527 8.27995 53.002 8.33203C53.4577 8.38411 53.8483 8.4362 54.1738 8.48828C54.5514 8.55339 54.89 8.61849 55.1895 8.68359V11.1445C54.9811 11.0729 54.776 11.0176 54.5742 10.9785C54.3724 10.9329 54.1673 10.8841 53.959 10.832C53.959 12.2318 53.8223 13.5306 53.5488 14.7285C53.2819 15.9199 52.9076 17.0332 52.4258 18.0684C51.944 19.1035 51.3678 20.0638 50.6973 20.9492C50.0332 21.8346 49.304 22.6615 48.5098 23.4297C47.709 22.6615 46.9766 21.8346 46.3125 20.9492C45.6549 20.0638 45.0918 19.1035 44.623 18.0684C44.1543 17.0332 43.7897 15.9199 43.5293 14.7285C43.2689 13.5306 43.1387 12.2318 43.1387 10.832C42.9043 10.8841 42.6797 10.9329 42.4648 10.9785C42.25 11.0176 42.0384 11.0729 41.8301 11.1445V8.66406C41.8301 8.67057 41.9147 8.65755 42.084 8.625C42.2598 8.59245 42.5072 8.55339 42.8262 8.50781C43.1517 8.45573 43.5423 8.4069 43.998 8.36133C44.4538 8.30924 44.9681 8.26693 45.541 8.23438Z" fill="#1F1A50"/>
<path d="M16.793 41.1367C17.7956 41.1367 18.8568 41.1725 19.9766 41.2441C21.1029 41.3158 22.2747 41.4557 23.4922 41.6641V44.1445C22.9453 43.9883 22.3919 43.8613 21.832 43.7637C21.2721 43.6595 20.709 43.5781 20.1426 43.5195C19.5827 43.4609 19.0228 43.4186 18.4629 43.3926C17.903 43.3665 17.3464 43.3503 16.793 43.3438C16.526 43.3438 16.2298 43.3503 15.9043 43.3633C15.5853 43.3698 15.2435 43.3828 14.8789 43.4023C14.5208 43.4219 14.1432 43.4512 13.7461 43.4902C13.349 43.5293 12.9453 43.5781 12.5352 43.6367V47.1914H21.0703V49.5938H12.5352V53.5195C13.1667 53.6107 13.8242 53.679 14.5078 53.7246C15.1914 53.7702 15.9531 53.793 16.793 53.793C17.9258 53.793 19.0521 53.7376 20.1719 53.627C21.2917 53.5163 22.3984 53.3047 23.4922 52.9922V55.4727C22.2747 55.681 21.1061 55.821 19.9863 55.8926C18.8665 55.9642 17.8151 56 16.832 56C15.8294 56 14.765 55.9642 13.6387 55.8926C12.5189 55.821 11.3438 55.681 10.1133 55.4727V41.6641C11.3438 41.4557 12.5189 41.3158 13.6387 41.2441C14.7585 41.1725 15.8099 41.1367 16.793 41.1367Z" fill="#1F1A50"/>
<path d="M51.7715 52.1523V41.2734C52.3314 41.293 52.8555 41.3288 53.3438 41.3809C53.8385 41.4264 54.2747 41.4753 54.6523 41.5273C55.0885 41.5924 55.4954 41.6576 55.873 41.7227V44.2031C55.3522 44.0469 54.7533 43.9102 54.0762 43.793V53.6367C54.4277 53.5846 54.75 53.5228 55.043 53.4512C55.3424 53.3796 55.6191 53.3047 55.873 53.2266V55.5312C55.4043 55.6094 54.9779 55.6745 54.5938 55.7266C54.2096 55.7786 53.8516 55.821 53.5195 55.8535C53.194 55.8861 52.888 55.9121 52.6016 55.9316C52.3151 55.9512 52.0384 55.9674 51.7715 55.9805L45.2285 45.1211V55.9805C44.9616 55.9674 44.6849 55.9512 44.3984 55.9316C44.112 55.9121 43.806 55.8861 43.4805 55.8535C43.1549 55.821 42.8001 55.7786 42.416 55.7266C42.0319 55.6745 41.6087 55.6094 41.1465 55.5312V53.0508C41.6283 53.207 42.2272 53.3438 42.9434 53.4609V43.5977C42.5983 43.6562 42.276 43.7214 41.9766 43.793C41.6771 43.8646 41.4004 43.9362 41.1465 44.0078V41.7227C41.5111 41.6576 41.9115 41.5924 42.3477 41.5273C42.7188 41.4753 43.1517 41.4264 43.6465 41.3809C44.1413 41.3288 44.6686 41.293 45.2285 41.2734L51.7715 52.1523Z" fill="#1F1A50"/>
<rect y="32" width="2" height="66" transform="rotate(-90 0 32)" fill="#141037"/>
<rect x="32" width="2" height="66" fill="#141037"/>
<path d="M16.4902 8.11719C17.4733 8.11719 18.401 8.20508 19.2734 8.38086C20.1458 8.55664 20.9076 8.80078 21.5586 9.11328C22.2161 9.42578 22.737 9.80013 23.1211 10.2363C23.5052 10.6725 23.6973 11.151 23.6973 11.6719V13.2539H21.1582V12.4141C21.1582 12.1341 21.0508 11.8672 20.8359 11.6133C20.6211 11.3594 20.3118 11.1348 19.9082 10.9395C19.5111 10.7441 19.0228 10.5911 18.4434 10.4805C17.8704 10.3633 17.2194 10.3047 16.4902 10.3047C15.7871 10.3047 15.1491 10.36 14.5762 10.4707C14.0033 10.5814 13.5117 10.7311 13.1016 10.9199C12.6914 11.1087 12.3757 11.3333 12.1543 11.5938C11.9329 11.8477 11.8223 12.1211 11.8223 12.4141V18.7422C11.8223 19.0286 11.9329 19.3021 12.1543 19.5625C12.3757 19.8164 12.6914 20.041 13.1016 20.2363C13.5117 20.4251 14.0033 20.5749 14.5762 20.6855C15.1491 20.7962 15.7871 20.8516 16.4902 20.8516C17.2194 20.8516 17.8704 20.7962 18.4434 20.6855C19.0228 20.5684 19.5111 20.4121 19.9082 20.2168C20.3118 20.0215 20.6211 19.7969 20.8359 19.543C21.0508 19.2891 21.1582 19.0221 21.1582 18.7422V17.3359C20.5527 17.3359 20.0091 17.3522 19.5273 17.3848C19.0521 17.4173 18.6452 17.4499 18.3066 17.4824C17.9095 17.528 17.5579 17.5768 17.252 17.6289L17.5059 15.2656C18.502 15.1875 19.4395 15.1484 20.3184 15.1484C21.4967 15.1484 22.623 15.207 23.6973 15.3242V19.4844C23.6973 20.0052 23.5052 20.4837 23.1211 20.9199C22.737 21.3496 22.2161 21.7207 21.5586 22.0332C20.9076 22.3457 20.1458 22.5898 19.2734 22.7656C18.401 22.9349 17.4733 23.0195 16.4902 23.0195C15.5072 23.0195 14.5794 22.9349 13.707 22.7656C12.8346 22.5898 12.0697 22.3457 11.4121 22.0332C10.7611 21.7207 10.2435 21.3496 9.85938 20.9199C9.47526 20.4837 9.2832 20.0052 9.2832 19.4844V11.6719C9.2832 11.151 9.47526 10.6725 9.85938 10.2363C10.2435 9.80013 10.7611 9.42578 11.4121 9.11328C12.0697 8.80078 12.8346 8.55664 13.707 8.38086C14.5794 8.20508 15.5072 8.11719 16.4902 8.11719Z" fill="#1F1A50"/>
<defs>
<linearGradient id="paint0_linear_68_7" x1="4.4" y1="-2.42" x2="66" y2="69.52" gradientUnits="userSpaceOnUse">
<stop stop-color="#67F410"/>
<stop offset="1" stop-color="#FFF500" stop-opacity="0.98"/>
</linearGradient>
</defs>
</svg>
